<svg width="17" height="20" viewBox="0 0 17 20" xmlns="http://www.w3.org/2000/svg">
<path d="M15.96 20H0.7C0.31 20 0 19.69 0 19.3V14.21C0 11.72 2.03 9.7 4.51 9.7H12.14C14.63 9.7 16.65 11.73 16.65 14.22V19.31C16.66 19.69 16.35 20 15.96 20ZM1.4 18.6H15.26V14.21C15.26 12.49 13.86 11.1 12.15 11.1H4.51C2.79 11.1 1.4 12.5 1.4 14.21V18.6ZM8.33 9.03C5.84 9.03 3.81 7 3.81 4.51C3.81 2.03 5.84 0 8.33 0C10.82 0 12.85 2.03 12.85 4.51C12.84 7 10.82 9.03 8.33 9.03ZM8.33 1.4C6.61 1.4 5.22 2.8 5.22 4.51C5.22 6.23 6.62 7.62 8.33 7.62C10.04 7.62 11.44 6.22 11.44 4.51C11.44 2.8 10.05 1.4 8.33 1.4Z"/>
</svg>
